# xmcd
#
# Track frame offsets:
#	150
#	23025
#	39685
#	56637
#	77567
#	100337
#	121145
#	130770
#	147335
#	175575
#	189825
#	200695
#	224580
#
# Disc length: 3226 seconds
# Revision: 0
# Processed by: cddbd v1.5.2PL0 Copyright (c) Steve Scherf et al.
# Submitted via: dBpowerAMP V12.0
#
DISCID=b40c980d
DTITLE=Various Artist - Cool Blue Rocks: Rock and Roll in the Bluegrass Tradition
DYEAR=2001
DGENRE=Bluegrass
TTITLE0=Jerry Douglas - The TV Doctor
TTITLE1=Bryan Sutton - When Love Comes to Town
TTITLE2=The Seldom Scene - Settin' Me Up
TTITLE3=Chesapeake - Let It Roll
TTITLE4=Sam Bush - Sailin' Shoes
TTITLE5=Sammy Shelor - Cross Road Blues
TTITLE6=Tim  and Mollie O'Brien - If I Had My Way
TTITLE7=Tim O'Brien - Tombstone Blues
TTITLE8=Psychograss - 3rd Stone from the Sun
TTITLE9=Jerry Douglas - Hey Joe
TTITLE10=The Seldom Scene - Bad Moon Rising
TTITLE11=Sam Bush - Is This Love
TTITLE12=New Grass Revival - One Love/People Get Ready
EXTD=
EXTT0=
EXTT1=
EXTT2=
EXTT3=
EXTT4=
EXTT5=
EXTT6=
EXTT7=
EXTT8=
EXTT9=
EXTT10=
EXTT11=
EXTT12=
PLAYORDER=
